<?xml version="1.0" encoding="utf-8"?>
<!-- Generator: Adobe Illustrator 16.0.0, SVG Export Plug-In . SVG Version: 6.00 Build 0)  -->
<!DOCTYPE svg PUBLIC "-//W3C//DTD SVG 1.1//EN" "http://www.w3.org/Graphics/SVG/1.1/DTD/svg11.dtd">
<svg version="1.1" id="Layer_1" xmlns="http://www.w3.org/2000/svg" xmlns:xlink="http://www.w3.org/1999/xlink" x="0px" y="0px"
	 width="65px" height="65px" viewBox="0 0 65 65" enable-background="new 0 0 65 65" xml:space="preserve">
<g id="like">
	<linearGradient id="SVGID_1_" gradientUnits="userSpaceOnUse" x1="5.126" y1="15.29" x2="60.2408" y2="49.7296">
		<stop  offset="0.5" style="stop-color:#366DB4"/>
		<stop  offset="0.5" style="stop-color:#3C7FC1"/>
	</linearGradient>
	<path fill="url(#SVGID_1_)" d="M61.366,18.021c0-1.14-0.808-2.536-1.793-3.106l-25.1-14.489c-0.985-0.571-2.599-0.571-3.583,0
		L5.792,14.914C4.807,15.484,4,16.881,4,18.021v28.979c0,1.141,0.807,2.536,1.792,3.106L30.89,64.594
		c0.985,0.569,2.598,0.569,3.583,0l25.1-14.488c0.985-0.57,1.793-1.966,1.793-3.106V18.021z"/>
	<path fill="#2F6DB5" d="M18.436,32.561l0.322,11.82L43.58,59.317l15.911-9.258c0.984-0.569,1.79-1.966,1.79-3.105V34.235
		L36.162,18.657l-1.279,5.933l-2.36,5.433l0.593,1.571l-4.041,2.149l-4.191-2.579L18.436,32.561z"/>
	<path opacity="0.3" fill="#010202" d="M36.57,19.339c0.209,0.048,0.375,0.113,0.451,0.178c0.286,0.241,1.671,3.223,1.626,4.623
		c-0.033,1.02-0.519,3.69-0.782,5.072c-0.628,0-1.026,0-1.026,0s0.903-4.531,0.949-5.932C37.82,22.247,37.078,20.358,36.57,19.339z
		 M48.945,31.365c0-0.698-0.442-1.013-0.905-1.163c0.022,0.095,0.046,0.19,0.046,0.304c0,1.476-1.551,2.109-1.551,2.109
		l-0.105,0.449c0,0,0.646,0.181,0.646,1.085c0,1.476-1.534,2.048-1.534,2.048l-0.106,0.407c0,0,0.678,0.421,0.678,1.218
		c0,1.476-1.654,1.988-1.654,1.988s0,0.24,0,0.376c0.3,0.092,0.66,0.513,0.66,1.145c0,1.656-1.715,2.265-2.708,2.265
		c-1.386,0-10.961,0-11.775,0c-0.813,0-1.927-1.028-2.229-1.028c-0.008,0-0.018,0-0.026,0v0.86c0,0,0.584,0,0.886,0
		s1.416,1.028,2.229,1.028c0.814,0,10.39,0,11.772,0c0.994,0,2.711-0.609,2.711-2.265c0-0.633-0.362-1.055-0.663-1.145
		c0-0.137,0-0.376,0-0.376s1.657-0.513,1.657-1.988c0-0.798-0.678-1.22-0.678-1.22l0.104-0.405c0,0,1.536-0.573,1.536-2.049
		c0-0.903-0.647-1.084-0.647-1.084l0.105-0.45C47.395,33.475,48.945,32.841,48.945,31.365z M25.868,32.23
		c0.07,0.175,0.111,0.368,0.111,0.571v10.28c0,0.853-0.691,1.543-1.543,1.543H19.81c-0.202,0-0.394-0.04-0.571-0.111
		c0.228,0.568,0.781,0.972,1.431,0.972h4.627c0.852,0,1.542-0.691,1.542-1.543V33.66C26.839,33.011,26.436,32.457,25.868,32.23z"/>
	<path fill="#FFFFFF" d="M46.535,32.615l-0.105,0.449c0,0,0.646,0.181,0.646,1.085c0,1.476-1.534,2.048-1.534,2.048l-0.106,0.407
		c0,0,0.678,0.421,0.678,1.218c0,1.476-1.654,1.988-1.654,1.988s0,0.24,0,0.376c0.3,0.092,0.66,0.513,0.66,1.145
		c0,1.656-1.715,2.265-2.708,2.265c-1.386,0-10.961,0-11.775,0c-0.813,0-1.927-1.028-2.229-1.028c-0.301,0-0.886,0-0.886,0V32.103
		c0,0,1.624-0.979,2.904-2.938c1.279-1.957,3.478-5.931,3.478-5.931s-0.183-3.298-0.212-4.336c0.691-0.753,2.184-0.482,2.471-0.241
		c0.286,0.241,1.67,3.222,1.626,4.622c-0.046,1.4-0.949,5.932-0.949,5.932s9.02,0,9.426,0s1.821,0.045,1.821,1.295
		C48.086,31.982,46.535,32.615,46.535,32.615z M24.437,31.257h-5.655c-0.851,0-1.542,0.691-1.542,1.543l1.028,10.28
		c0,0.853,0.691,1.543,1.543,1.543h4.626c0.852,0,1.543-0.69,1.543-1.543v-10.28C25.979,31.948,25.289,31.257,24.437,31.257z"/>
</g>
</svg>
