<?xml version="1.0" encoding="utf-8"?>
<!-- Generator: Adobe Illustrator 16.0.0, SVG Export Plug-In . SVG Version: 6.00 Build 0)  -->
<svg version="1.2" baseProfile="tiny" id="Layer_1" xmlns="http://www.w3.org/2000/svg" xmlns:xlink="http://www.w3.org/1999/xlink"
	 x="0px" y="0px" width="65px" height="65px" viewBox="0 0 65 65" overflow="scroll" xml:space="preserve">
<g id="like_1_">
	<linearGradient id="SVGID_1_" gradientUnits="userSpaceOnUse" x1="5.0098" y1="15.3965" x2="59.708" y2="49.5758">
		<stop  offset="0.5" style="stop-color:#356CB3"/>
		<stop  offset="0.5" style="stop-color:#3D7EC0"/>
	</linearGradient>
	<path fill="url(#SVGID_1_)" d="M60.826,18.106c0-1.131-0.803-2.517-1.78-3.083L34.137,0.643c-0.979-0.566-2.58-0.566-3.557,0
		L5.671,15.024c-0.978,0.566-1.779,1.951-1.779,3.083v28.76c0,1.131,0.801,2.517,1.779,3.082L30.58,64.329
		c0.977,0.563,2.579,0.563,3.557,0l24.909-14.381c0.978-0.565,1.78-1.951,1.78-3.082V18.106z"/>
	<linearGradient id="SVGID_2_" gradientUnits="userSpaceOnUse" x1="21.2261" y1="27.7271" x2="58.6412" y2="51.1066">
		<stop  offset="0.4" style="stop-color:#000100"/>
		<stop  offset="1" style="stop-color:#706F6F"/>
	</linearGradient>
	<path fill="url(#SVGID_2_)" d="M18.219,32.537l0.32,11.731l24.634,14.823l15.791-9.188c0.978-0.565,1.777-1.951,1.777-3.082V34.199
		l-24.93-15.461l-1.27,5.888l-2.343,5.391l0.588,1.56l-4.009,2.133l-4.16-2.56L18.219,32.537z"/>
	<image width="43" height="42" xlink:href="55491027.png"  transform="matrix(1 0 0 1 18 18)">
	</image>
	<image width="30" height="27" xlink:href="55491025.png"  transform="matrix(1 0 0 1 19 19)">
	</image>
	<path fill="#FFFFFF" d="M46.106,32.591l-0.104,0.446c0,0,0.642,0.18,0.642,1.076c0,1.466-1.522,2.033-1.522,2.033l-0.105,0.403
		c0,0,0.673,0.418,0.673,1.21c0,1.464-1.644,1.971-1.644,1.971s0,0.24,0,0.375c0.298,0.09,0.656,0.507,0.656,1.135
		c0,1.645-1.702,2.248-2.688,2.248c-1.376,0-10.879,0-11.687,0c-0.806,0-1.912-1.021-2.211-1.021c-0.298,0-0.879,0-0.879,0V32.083
		c0,0,1.612-0.973,2.883-2.916c1.269-1.942,3.45-5.887,3.45-5.887s-0.18-3.272-0.211-4.303c0.687-0.747,2.168-0.478,2.453-0.239
		c0.284,0.239,1.657,3.198,1.613,4.587c-0.045,1.389-0.941,5.887-0.941,5.887s8.952,0,9.354,0c0.403,0,1.808,0.045,1.808,1.285
		C47.646,31.962,46.106,32.591,46.106,32.591z M24.175,31.243h-5.612c-0.845,0-1.531,0.686-1.531,1.531l1.021,10.204
		c0,0.846,0.685,1.53,1.531,1.53h4.592c0.845,0,1.531-0.685,1.531-1.53V32.774C25.706,31.929,25.02,31.243,24.175,31.243z"/>
</g>
</svg>
