<?xml version="1.0" encoding="iso-8859-1"?>
<!-- Generator: Adobe Illustrator 16.0.0, SVG Export Plug-In . SVG Version: 6.00 Build 0)  -->
<!DOCTYPE svg PUBLIC "-//W3C//DTD SVG 1.1//EN" "http://www.w3.org/Graphics/SVG/1.1/DTD/svg11.dtd">
<svg version="1.1" id="Layer_1" xmlns="http://www.w3.org/2000/svg" xmlns:xlink="http://www.w3.org/1999/xlink" x="0px" y="0px"
	 width="281.5px" height="112.5px" viewBox="0 0 281.5 112.5" style="enable-background:new 0 0 281.5 112.5;" xml:space="preserve"
	>
<g>
	<path style="fill-rule:evenodd;clip-rule:evenodd;fill:#EE3B24;" d="M12.825,64.779h103.006V19.284H12.825V64.779L12.825,64.779z
		 M121.169,64.779H269.5V19.284H121.169V64.779L121.169,64.779z"/>
	<path style="fill-rule:evenodd;clip-rule:evenodd;fill:#007DC1;" d="M12.825,64.465h103.006v34.483H12.825V64.465L12.825,64.465z
		 M121.169,64.465H269.5v34.483H121.169V64.465L121.169,64.465z"/>
	<g>
		<path style="fill:#FFFFFF;" d="M137.895,26.019h13.608c1.899,0,3.508,0.659,4.827,1.977c1.317,1.319,1.977,2.928,1.977,4.828
			v20.78c0,1.595-0.292,2.744-0.873,3.448c-0.584,0.705-1.304,1.303-2.161,1.793c0.857,0.308,1.577,0.889,2.161,1.747
			c0.581,0.858,0.873,2.299,0.873,4.321v19.953c0,1.9-0.659,3.51-1.977,4.827c-1.319,1.318-2.928,1.977-4.827,1.977h-13.608V26.019z
			 M144.698,55.442h6.805V32.823h-6.805V55.442z M144.698,84.866h6.805v-22.62h-6.805V84.866z"/>
		<path style="fill:#FFFFFF;" d="M185.522,91.67h-13.608c-1.9,0-3.51-0.658-4.827-1.977c-1.318-1.317-1.977-2.927-1.977-4.827
			V59.764c0-1.899,0.658-3.508,1.977-4.827c1.317-1.317,2.927-1.977,4.827-1.977h6.805v-7.08h-12.138v-6.804h12.138
			c1.899,0,3.508,0.659,4.827,1.977c1.317,1.319,1.977,2.928,1.977,4.828V91.67z M171.914,84.866h6.805V59.764h-6.805V84.866z"/>
		<path style="fill:#FFFFFF;" d="M192.326,45.88c0-1.899,0.658-3.509,1.977-4.828c1.317-1.317,2.927-1.977,4.827-1.977h6.805v6.804
			h-6.805v45.79h-6.804V45.88z"/>
		<path style="fill:#FFFFFF;" d="M211.083,48.73c0-1.409,0.275-2.727,0.827-3.954c0.552-1.226,1.287-2.299,2.207-3.218
			c0.919-0.919,1.991-1.655,3.218-2.207c1.226-0.552,2.543-0.828,3.954-0.828c1.409,0,2.727,0.276,3.954,0.828
			c1.226,0.552,2.298,1.287,3.218,2.207s1.655,1.993,2.207,3.218c0.552,1.227,0.827,2.544,0.827,3.954v33.286
			c0,1.41-0.275,2.728-0.827,3.953c-0.552,1.228-1.287,2.299-2.207,3.219c-0.92,0.919-1.992,1.655-3.218,2.207
			c-1.228,0.551-2.545,0.827-3.954,0.827c-1.411,0-2.729-0.276-3.954-0.827c-1.227-0.552-2.299-1.288-3.218-2.207
			c-0.92-0.92-1.655-1.991-2.207-3.219c-0.552-1.226-0.827-2.543-0.827-3.953V48.73z M217.887,84.866h6.805V45.88h-6.805V84.866z"/>
		<path style="fill:#FFFFFF;" d="M238.299,26.019h6.804v32.826h4.229c0.674,0,1.271-0.139,1.793-0.414
			c0.521-0.275,0.782-0.903,0.782-1.885V44.592c0-1.409,0.138-2.513,0.413-3.31c0.276-0.796,0.566-1.531,0.874-2.207h6.804
			c-0.308,0.675-0.598,1.411-0.873,2.207c-0.276,0.797-0.414,1.901-0.414,3.31v11.954c0,1.595-0.308,2.851-0.919,3.77
			c-0.614,0.92-1.288,1.563-2.023,1.931c0.735,0.308,1.409,0.92,2.023,1.84c0.611,0.919,0.919,2.176,0.919,3.77v18.298
			c0,1.41,0.138,2.514,0.414,3.31c0.275,0.798,0.565,1.533,0.873,2.207h-6.804c-0.308-0.674-0.598-1.409-0.874-2.207
			c-0.275-0.796-0.413-1.899-0.413-3.31V67.855c0-0.49-0.17-0.966-0.506-1.426c-0.338-0.459-1.027-0.72-2.069-0.781h-4.229V91.67
			h-6.804V26.019z"/>
	</g>
	
		<path style="fill-rule:evenodd;clip-rule:evenodd;fill:#FFFFFF;stroke:#FFFFFF;stroke-width:0.5669;stroke-miterlimit:22.9256;" d="
		M18.102,30.809h41.572c4.739,0,8.616,3.877,8.616,8.615v14.222h13.565V35.129l21.443,23.987L81.854,83.104V64.586H68.29v14.223
		c0,4.738-3.877,8.614-8.616,8.614H18.102V76.244h38.974V64.62H18.102V53.612h38.974V41.988H18.102V30.809L18.102,30.809z"/>
</g>
</svg>
