<?xml version="1.0" encoding="utf-8"?>
<!-- Generator: Adobe Illustrator 16.0.0, SVG Export Plug-In . SVG Version: 6.00 Build 0)  -->
<!DOCTYPE svg PUBLIC "-//W3C//DTD SVG 1.1//EN" "http://www.w3.org/Graphics/SVG/1.1/DTD/svg11.dtd">
<svg version="1.1" id="Layer_1" xmlns="http://www.w3.org/2000/svg" xmlns:xlink="http://www.w3.org/1999/xlink" x="0px" y="0px"
	 width="296px" height="221.75px" viewBox="7.25 0 296 221.75" enable-background="new 7.25 0 296 221.75" xml:space="preserve">
<g>
	<path fill="#EE3B24" d="M20.393,54.482h106.86V7.284H20.393V54.482L20.393,54.482z M132.791,54.482h153.881V7.284H132.791V54.482
		L132.791,54.482z"/>
	<path fill="#007DC1" d="M20.393,54.155h106.86V89.93H20.393V54.155L20.393,54.155z M132.791,54.155h153.881V89.93H132.791V54.155
		L132.791,54.155z"/>
	<g>
		<path fill="#FFFFFF" d="M150.143,14.271h14.116c1.971,0,3.641,0.684,5.009,2.051c1.365,1.369,2.051,3.038,2.051,5.009v21.557
			c0,1.655-0.303,2.847-0.906,3.577c-0.605,0.731-1.353,1.353-2.241,1.861c0.889,0.318,1.636,0.922,2.241,1.812
			c0.604,0.891,0.906,2.385,0.906,4.482v20.7c0,1.97-0.684,3.642-2.051,5.008c-1.368,1.366-3.038,2.05-5.009,2.05h-14.116V14.271z
			 M157.2,44.795h7.059V21.33H157.2V44.795z M157.2,75.32h7.059V51.854H157.2V75.32z"/>
		<path fill="#FFFFFF" d="M199.551,82.378h-14.117c-1.971,0-3.641-0.683-5.007-2.05c-1.366-1.366-2.052-3.038-2.052-5.008V49.278
			c0-1.97,0.684-3.639,2.052-5.007c1.366-1.366,3.036-2.051,5.007-2.051h7.061v-7.345h-12.593v-7.058h12.593
			c1.97,0,3.639,0.683,5.007,2.051c1.367,1.369,2.052,3.038,2.052,5.009v47.501H199.551z M185.434,75.32h7.061V49.278h-7.061V75.32z
			"/>
		<path fill="#FFFFFF" d="M206.61,34.875c0-1.97,0.683-3.64,2.05-5.009c1.366-1.366,3.038-2.05,5.009-2.05h7.06v7.058h-7.06v47.503
			h-7.059V34.875z"/>
		<path fill="#FFFFFF" d="M226.069,37.832c0-1.461,0.284-2.829,0.858-4.102c0.571-1.272,1.334-2.385,2.289-3.338
			c0.953-0.954,2.064-1.717,3.338-2.29c1.271-0.573,2.638-0.859,4.102-0.859c1.461,0,2.829,0.286,4.103,0.859
			c1.271,0.572,2.384,1.335,3.338,2.29c0.955,0.954,1.718,2.067,2.29,3.338c0.573,1.273,0.858,2.639,0.858,4.102v34.531
			c0,1.463-0.285,2.832-0.858,4.102c-0.572,1.274-1.335,2.385-2.29,3.339c-0.954,0.954-2.066,1.718-3.338,2.29
			c-1.273,0.571-2.642,0.859-4.103,0.859c-1.464,0-2.83-0.288-4.102-0.859c-1.273-0.572-2.385-1.336-3.338-2.29
			c-0.955-0.954-1.718-2.064-2.289-3.339c-0.574-1.271-0.858-2.639-0.858-4.102V37.832z M233.127,75.32h7.06V34.875h-7.06V75.32z"/>
		<path fill="#FFFFFF" d="M254.303,14.271h7.06v34.055h4.387c0.699,0,1.319-0.146,1.86-0.43c0.54-0.286,0.812-0.938,0.812-1.956
			V33.539c0-1.461,0.143-2.606,0.428-3.433c0.286-0.826,0.587-1.588,0.906-2.29h7.06c-0.321,0.7-0.621,1.463-0.905,2.29
			c-0.286,0.827-0.431,1.972-0.431,3.433V45.94c0,1.654-0.319,2.957-0.953,3.912c-0.637,0.954-1.336,1.62-2.098,2.002
			c0.762,0.319,1.461,0.954,2.098,1.908c0.634,0.954,0.953,2.259,0.953,3.912v18.982c0,1.463,0.145,2.608,0.431,3.434
			c0.284,0.828,0.584,1.591,0.905,2.29h-7.06c-0.319-0.699-0.62-1.462-0.906-2.29c-0.285-0.825-0.428-1.969-0.428-3.434V57.673
			c0-0.509-0.178-1.003-0.526-1.479c-0.351-0.477-1.064-0.748-2.146-0.811h-4.387v26.994h-7.06V14.271z"/>
	</g>
	<path fill="#FFFFFF" stroke="#FFFFFF" stroke-width="0.5669" stroke-miterlimit="22.9256" d="M25.867,19.241h43.127
		c4.917,0,8.938,4.022,8.938,8.937v14.754h14.072v-19.21l22.246,24.885L92.004,73.492V54.281H77.933v14.755
		c0,4.915-4.022,8.937-8.938,8.937H25.867V66.375h40.433V54.316H25.867v-11.42h40.433V30.837H25.867V19.241L25.867,19.241z"/>
</g>
<g>
	<path fill="#EF3B24" d="M59.023,146.976H45.426v-6.799l13.505-35.004h6.891v35.004h5.145v6.799h-5.145v23.795h-6.799V146.976z
		 M59.574,125.568c0.122-2.939,0.306-5.818,0.551-8.636h-0.184c-0.368,1.409-0.751,2.848-1.148,4.318
		c-0.399,1.47-0.873,2.909-1.424,4.317l-5.604,14.608h7.258L59.574,125.568z"/>
	<path fill="#EF3B24" d="M86.217,146.976H72.62v-6.799l13.505-35.004h6.891v35.004h5.145v6.799h-5.145v23.795h-6.799V146.976z
		 M86.768,125.568c0.122-2.939,0.306-5.818,0.551-8.636h-0.184c-0.368,1.409-0.751,2.848-1.148,4.318
		c-0.399,1.47-0.873,2.909-1.424,4.317l-5.604,14.608h7.258L86.768,125.568z"/>
	<path fill="#EF3B24" d="M113.41,146.976H99.813v-6.799l13.505-35.004h6.891v35.004h5.145v6.799h-5.145v23.795h-6.799V146.976z
		 M113.961,125.568c0.122-2.939,0.306-5.818,0.551-8.636h-0.184c-0.368,1.409-0.751,2.848-1.148,4.318
		c-0.399,1.47-0.873,2.909-1.424,4.317l-5.604,14.608h7.258L113.961,125.568z"/>
	<path fill="#8A8C8F" d="M150.801,163.972h6.8v-22.601h-8.085l7.809-29.399h-6.523v10.289h-6.798v-17.088h20.396v6.799
		l-6.063,22.601c1.53,0,2.925,0.659,4.181,1.976c1.255,1.317,1.883,2.925,1.883,4.823v19.753c0,1.409-0.275,2.726-0.826,3.95
		c-0.552,1.226-1.286,2.297-2.205,3.216s-1.991,1.653-3.216,2.205c-1.226,0.551-2.542,0.826-3.95,0.826
		c-1.41,0-2.727-0.275-3.951-0.826c-1.226-0.552-2.297-1.286-3.215-2.205c-0.92-0.919-1.654-1.99-2.205-3.216
		c-0.552-1.225-0.827-2.541-0.827-3.95v-7.442h6.798V163.972z"/>
	<path fill="#007DC2" d="M184.794,105.173h13.598c1.897,0,3.505,0.658,4.823,1.975c1.316,1.318,1.975,2.926,1.975,4.824v20.763
		c0,1.594-0.291,2.742-0.872,3.445c-0.583,0.705-1.303,1.303-2.159,1.792c0.856,0.307,1.576,0.889,2.159,1.745
		c0.581,0.858,0.872,2.297,0.872,4.318v19.937c0,1.899-0.658,3.507-1.975,4.823c-1.318,1.318-2.926,1.976-4.823,1.976h-13.598
		V105.173z M191.593,134.572h6.799v-22.601h-6.799V134.572z M191.593,163.972h6.799v-22.601h-6.799V163.972z"/>
	<path fill="#007DC2" d="M211.987,105.173h13.598c1.897,0,3.505,0.658,4.823,1.975c1.316,1.318,1.975,2.926,1.975,4.824v20.763
		c0,1.594-0.291,2.742-0.872,3.445c-0.583,0.705-1.303,1.303-2.159,1.792c0.856,0.307,1.576,0.889,2.159,1.745
		c0.581,0.858,0.872,2.297,0.872,4.318v21.866c0,0.919,0.152,1.745,0.46,2.48c0.306,0.735,0.703,1.531,1.194,2.389h-6.982
		c-0.367-0.673-0.705-1.438-1.011-2.297c-0.308-0.857-0.459-1.714-0.459-2.572v-24.53h-6.799v29.399h-6.799V105.173z
		 M218.786,134.572h6.799v-22.601h-6.799V134.572z"/>
	<path fill="#007DC2" d="M239.181,105.173h6.799v29.399h6.799v-24.53c0-1.103,0.151-2.021,0.459-2.756
		c0.306-0.735,0.644-1.438,1.011-2.113h6.982c-0.491,0.734-0.889,1.47-1.194,2.205c-0.308,0.734-0.46,1.623-0.46,2.664v22.692
		c0,1.594-0.291,2.742-0.872,3.445c-0.583,0.705-1.303,1.303-2.159,1.792c0.856,0.307,1.576,0.889,2.159,1.745
		c0.581,0.858,0.872,2.297,0.872,4.318v21.866c0,0.919,0.152,1.745,0.46,2.48c0.306,0.735,0.703,1.531,1.194,2.389h-6.982
		c-0.367-0.673-0.705-1.438-1.011-2.297c-0.308-0.857-0.459-1.714-0.459-2.572v-24.53h-6.799v29.399h-6.799V105.173z"/>
</g>
<g>
	<path fill="#3A3A3A" d="M38.5,194.603l-3.36,15.6h-3.6l-2.67-11.069l-3.09,11.069h-3.45l-3.21-15.629l3.18-0.33
		c2.22,12.299,2.22,12.329,2.25,12.329l3.15-11.88h2.55c2.79,11.88,2.82,11.88,2.82,11.88l2.31-12.329L38.5,194.603z"/>
	<path fill="#3A3A3A" d="M62.02,194.603l-3.36,15.6h-3.6l-2.67-11.069l-3.09,11.069h-3.45l-3.209-15.629l3.18-0.33
		c2.22,12.299,2.22,12.329,2.25,12.329l3.15-11.88h2.55c2.79,11.88,2.82,11.88,2.82,11.88l2.31-12.329L62.02,194.603z"/>
	<path fill="#3A3A3A" d="M85.54,194.603l-3.36,15.6h-3.6l-2.67-11.069l-3.09,11.069h-3.45l-3.209-15.629l3.18-0.33
		c2.22,12.299,2.22,12.329,2.25,12.329l3.15-11.88h2.55c2.79,11.88,2.82,11.88,2.82,11.88l2.31-12.329L85.54,194.603z"/>
	<path fill="#3A3A3A" d="M91.421,206.332c1.29,0,2.01,0.87,2.01,2.07c0,1.17-0.78,2.1-2.07,2.1c-1.23,0-1.95-0.84-1.95-2.069
		C89.411,207.353,90.131,206.332,91.421,206.332z"/>
	<path fill="#007DC1" d="M102.881,195.623c0.81-0.54,2.52-1.65,4.379-1.65c2.94,0,4.98,2.1,4.98,7.02c0,5.61-1.98,9.51-7.14,9.51
		c-2.1,0-4.11-0.63-5.37-1.35v-20.52h3.15V195.623z M102.881,207.382c0.63,0.33,1.44,0.631,2.43,0.631c2.79,0,3.63-2.761,3.63-6.271
		c0-3.989-1.05-5.1-2.67-5.1c-1.26,0-2.61,0.84-3.39,1.35V207.382z"/>
	<path fill="#007DC1" d="M118.72,194.573c1.02-0.301,3.12-0.631,4.53-0.631c4.86,0,5.97,2.13,5.97,6.75v5.82
		c0,1.05,0.3,1.409,0.87,1.409c0.24,0,0.51-0.06,0.87-0.18l0.21,2.37c-0.72,0.24-1.59,0.39-2.25,0.39c-1.29,0-2.04-0.42-2.37-1.92
		c-1.11,1.08-2.61,1.92-4.53,1.92c-3.18,0-4.65-2.25-4.65-4.979c0-3.75,2.28-5.52,6.15-5.52c0.9,0,1.71,0.09,2.64,0.3v-0.84
		c0-2.101-1.05-3.03-3.36-3.03c-1.26,0-2.76,0.271-3.81,0.6L118.72,194.573z M126.16,202.402c-0.63-0.18-1.32-0.33-2.1-0.33
		c-2.22,0-3.479,0.87-3.479,3.21c0,1.56,0.75,2.76,2.34,2.76c1.2,0,2.46-0.689,3.24-1.529V202.402z"/>
	<path fill="#007DC1" d="M146.619,196.283l-2.31,1.649c-0.51-0.9-0.93-1.32-1.649-1.32c-1.08,0-2.041,0.69-3.18,1.891v11.699h-3.18
		v-15.959h2.85l0.12,1.71c0.87-0.99,2.4-2.011,4.05-2.011C144.939,193.942,145.869,194.753,146.619,196.283z"/>
	<path fill="#007DC1" d="M149.561,202.313c0-4.59,2.069-8.37,6.719-8.37c4.95,0,6.3,3.87,6.3,8.101c0,4.199-1.739,8.52-6.659,8.52
		C150.94,210.563,149.561,206.272,149.561,202.313z M159.31,202.162c0-2.609-0.42-5.64-3.12-5.64c-2.819,0-3.359,3.36-3.359,5.82
		c0,3.029,0.689,5.64,3.18,5.64C158.68,207.982,159.31,205.013,159.31,202.162z"/>
	<path fill="#007DC1" d="M180.939,194.573l-4.29,6.449l5.1,9.18h-3.569l-4.2-7.47h-2.16v7.47h-3.18v-21.569h3.18v11.34h2.13
		l3.75-5.729L180.939,194.573z"/>
	<path fill="#3A3A3A" d="M188.26,206.332c1.29,0,2.01,0.87,2.01,2.07c0,1.17-0.779,2.1-2.069,2.1c-1.23,0-1.95-0.84-1.95-2.069
		C186.25,207.353,186.97,206.332,188.26,206.332z"/>
	<path fill="#3A3A3A" d="M207.039,206.813l0.271,2.699c-1.051,0.511-2.641,1.051-4.59,1.051c-5.49,0-6.81-4.41-6.81-8.25
		c0-4.32,1.439-8.37,6.449-8.37c3.45,0,4.859,2.13,5.31,4.41l-2.64,0.93c-0.39-1.47-1.08-2.729-2.79-2.729
		c-2.64,0-3.06,3.149-3.06,5.64c0,3.51,1.14,5.729,3.899,5.729C204.64,207.922,205.869,207.442,207.039,206.813z"/>
	<path fill="#3A3A3A" d="M212.109,202.313c0-4.59,2.07-8.37,6.721-8.37c4.949,0,6.299,3.87,6.299,8.101
		c0,4.199-1.739,8.52-6.659,8.52C213.49,210.563,212.109,206.272,212.109,202.313z M221.859,202.162c0-2.609-0.42-5.64-3.12-5.64
		c-2.819,0-3.359,3.36-3.359,5.82c0,3.029,0.689,5.64,3.18,5.64C221.229,207.982,221.859,205.013,221.859,202.162z"/>
	<path fill="#3A3A3A" d="M234.22,195.953c1.29-1.11,2.939-2.011,4.92-2.011c1.89,0,3.06,0.69,3.659,1.92
		c1.351-1.079,3.03-1.92,4.92-1.92c2.58,0,3.93,1.2,4.29,3.271c0.09,0.54,0.12,1.41,0.12,1.979v11.01h-3.18v-10.59
		c0-0.42-0.03-1.02-0.09-1.35c-0.24-1.14-0.9-1.59-2.131-1.59c-1.26,0-2.459,0.689-3.39,1.5c0.061,0.51,0.061,0.989,0.061,1.62
		v10.409h-3.15v-10.59c0-0.42-0.029-1.02-0.09-1.35c-0.21-1.14-0.84-1.59-1.979-1.59c-1.53,0-2.91,0.87-3.811,1.74v11.789h-3.18
		v-15.959h2.94L234.22,195.953z"/>
	<path fill="#3A3A3A" d="M260.559,206.332c1.29,0,2.01,0.87,2.01,2.07c0,1.17-0.779,2.1-2.069,2.1c-1.23,0-1.95-0.84-1.95-2.069
		C258.549,207.353,259.269,206.332,260.559,206.332z"/>
	<path fill="#3A3A3A" d="M272.499,196.612v8.521c0,1.499,0.03,2.76,1.561,2.76c0.72,0,1.409-0.271,2.1-0.601l0.36,2.49
		c-0.78,0.39-2.13,0.78-3.3,0.78c-2.88,0-3.9-1.71-3.9-4.26v-9.69h-2.069v-2.369h2.069v-2.641l3.18-1.56v4.2h3.78v2.369H272.499z"/>
	<path fill="#3A3A3A" d="M292.148,196.283l-2.31,1.649c-0.51-0.9-0.93-1.32-1.649-1.32c-1.08,0-2.04,0.69-3.181,1.891v11.699h-3.18
		v-15.959h2.85l0.12,1.71c0.87-0.99,2.4-2.011,4.05-2.011C290.469,193.942,291.398,194.753,292.148,196.283z"/>
</g>
</svg>
