<?xml version="1.0" encoding="utf-8"?>
<!-- Generator: Adobe Illustrator 16.0.0, SVG Export Plug-In . SVG Version: 6.00 Build 0)  -->
<!DOCTYPE svg PUBLIC "-//W3C//DTD SVG 1.1//EN" "http://www.w3.org/Graphics/SVG/1.1/DTD/svg11.dtd">
<svg version="1.1" id="Layer_1" xmlns="http://www.w3.org/2000/svg" xmlns:xlink="http://www.w3.org/1999/xlink" x="0px" y="0px"
	 width="238.333px" height="138.417px" viewBox="7.25 0 238.333 138.417" enable-background="new 7.25 0 238.333 138.417"
	 xml:space="preserve">
<g>
	<path fill="#EE3B24" d="M20.393,52.064h85.537v-37.78H20.393V52.064L20.393,52.064z M110.362,52.064h123.174v-37.78H110.362V52.064
		L110.362,52.064z"/>
	<path fill="#007DC1" d="M20.393,51.802h85.537v28.635H20.393V51.802L20.393,51.802z M110.362,51.802h123.174v28.635H110.362V51.802
		L110.362,51.802z"/>
	<g>
		<path fill="#FFFFFF" d="M122.386,19.877h11.299c1.577,0,2.914,0.547,4.009,1.641c1.093,1.096,1.642,2.432,1.642,4.01v17.255
			c0,1.325-0.242,2.279-0.726,2.863c-0.485,0.586-1.082,1.083-1.794,1.49c0.712,0.255,1.31,0.738,1.794,1.45
			c0.483,0.713,0.726,1.909,0.726,3.588v16.569c0,1.577-0.547,2.915-1.642,4.009s-2.432,1.641-4.009,1.641h-11.299V19.877z
			 M128.035,44.31h5.65V25.527h-5.65V44.31z M128.035,68.743h5.65V49.96h-5.65V68.743z"/>
		<path fill="#FFFFFF" d="M161.935,74.393h-11.3c-1.577,0-2.914-0.546-4.009-1.641c-1.094-1.094-1.642-2.432-1.642-4.009V47.898
			c0-1.577,0.547-2.913,1.642-4.008c1.095-1.094,2.432-1.642,4.009-1.642h5.651V36.37h-10.08v-5.65h10.08
			c1.577,0,2.912,0.546,4.008,1.642c1.095,1.095,1.642,2.431,1.642,4.009L161.935,74.393L161.935,74.393z M150.635,68.743h5.651
			V47.898h-5.651V68.743z"/>
		<path fill="#FFFFFF" d="M167.585,36.37c0-1.577,0.547-2.914,1.642-4.01c1.094-1.094,2.432-1.641,4.009-1.641h5.651v5.65h-5.651
			v38.024h-5.65V36.37z"/>
		<path fill="#FFFFFF" d="M183.161,38.736c0-1.17,0.228-2.264,0.687-3.283c0.458-1.019,1.068-1.909,1.833-2.672
			c0.763-0.764,1.652-1.375,2.672-1.833c1.018-0.459,2.111-0.688,3.283-0.688c1.169,0,2.264,0.229,3.284,0.688
			c1.018,0.458,1.908,1.069,2.671,1.833c0.766,0.764,1.375,1.654,1.833,2.672c0.46,1.019,0.688,2.113,0.688,3.283v27.64
			c0,1.171-0.228,2.267-0.688,3.283c-0.458,1.021-1.067,1.909-1.833,2.672c-0.763,0.765-1.653,1.376-2.671,1.834
			c-1.021,0.457-2.115,0.688-3.284,0.688c-1.172,0-2.266-0.23-3.283-0.688c-1.02-0.458-1.909-1.069-2.672-1.834
			c-0.765-0.763-1.375-1.651-1.833-2.672c-0.459-1.017-0.687-2.112-0.687-3.283V38.736z M188.811,68.743h5.651V36.37h-5.651V68.743z
			"/>
		<path fill="#FFFFFF" d="M205.761,19.877h5.65v27.259h3.512c0.56,0,1.056-0.117,1.489-0.344c0.432-0.229,0.649-0.751,0.649-1.566
			v-9.927c0-1.17,0.114-2.086,0.343-2.748s0.47-1.271,0.725-1.833h5.651c-0.257,0.561-0.497,1.171-0.726,1.833
			s-0.344,1.578-0.344,2.748v9.927c0,1.324-0.256,2.367-0.764,3.131c-0.509,0.764-1.068,1.297-1.678,1.603
			c0.609,0.256,1.169,0.764,1.678,1.528c0.508,0.763,0.764,1.808,0.764,3.131v15.195c0,1.17,0.115,2.087,0.344,2.747
			c0.229,0.663,0.469,1.273,0.726,1.834h-5.651c-0.255-0.561-0.496-1.171-0.725-1.834c-0.229-0.66-0.343-1.575-0.343-2.747V54.618
			c0-0.407-0.142-0.803-0.422-1.184c-0.28-0.381-0.852-0.599-1.717-0.649h-3.512v21.607h-5.65V19.877z"/>
	</g>
	<path fill="#FFFFFF" stroke="#FFFFFF" stroke-width="0.5669" stroke-miterlimit="22.9256" d="M24.774,23.854h34.522
		c3.935,0,7.155,3.22,7.155,7.153v11.811h11.264V27.441l17.807,19.919L77.713,67.28V51.903H66.451v11.81
		c0,3.935-3.22,7.154-7.155,7.154H24.774v-9.284h32.365v-9.652H24.774V42.79h32.365v-9.653H24.774V23.854L24.774,23.854z"/>
</g>
<g>
	<path fill="#FFFFFF" d="M31.765,90.138h3.533v15.279h3.533V90.138h3.533v34.091h-3.533V108.95h-3.533v15.278h-3.533V90.138z"/>
	<path fill="#FFFFFF" d="M57.452,93.671h-7.066v11.746h5.3v3.533h-5.3v11.745h7.066v3.533h-7.066c-0.987,0-1.823-0.342-2.507-1.026
		c-0.685-0.685-1.026-1.52-1.026-2.507V93.671c0-0.986,0.342-1.821,1.026-2.507c0.684-0.684,1.52-1.026,2.507-1.026h7.066V93.671z"
		/>
	<path fill="#FFFFFF" d="M61.08,115.348h3.533v5.348h3.533V108.95h-3.533c-0.987,0-1.823-0.342-2.507-1.027
		c-0.685-0.684-1.026-1.52-1.026-2.506V95.151c0-0.732,0.143-1.416,0.43-2.054c0.287-0.636,0.668-1.193,1.146-1.671
		s1.034-0.859,1.671-1.146c0.637-0.287,1.321-0.43,2.053-0.43c0.732,0,1.416,0.143,2.053,0.43c0.636,0.286,1.193,0.668,1.671,1.146
		s0.859,1.035,1.146,1.671c0.287,0.638,0.43,1.321,0.43,2.054v3.867h-3.533v-5.348h-3.533v11.746h3.533
		c0.986,0,1.822,0.342,2.507,1.026c0.684,0.685,1.026,1.521,1.026,2.507v10.265c0,0.733-0.143,1.417-0.43,2.054
		s-0.668,1.193-1.146,1.671s-1.035,0.859-1.671,1.146c-0.637,0.287-1.321,0.43-2.053,0.43c-0.732,0-1.417-0.143-2.053-0.43
		c-0.637-0.286-1.193-0.668-1.671-1.146s-0.859-1.034-1.146-1.671s-0.43-1.32-0.43-2.054V115.348z"/>
	<path fill="#FFFFFF" d="M76.167,95.151c0-0.732,0.143-1.416,0.43-2.054c0.287-0.636,0.668-1.193,1.146-1.671
		s1.034-0.859,1.671-1.146c0.637-0.287,1.321-0.43,2.053-0.43c0.732,0,1.416,0.143,2.053,0.43c0.636,0.286,1.193,0.668,1.671,1.146
		s0.859,1.035,1.146,1.671c0.287,0.638,0.43,1.321,0.43,2.054v29.077h-3.533V108.95h-3.533v15.278h-3.533V95.151z M79.701,105.417
		h3.533V93.671h-3.533V105.417z"/>
	<path fill="#FFFFFF" d="M91.255,90.138h7.066c0.986,0,1.822,0.343,2.507,1.026c0.684,0.686,1.026,1.521,1.026,2.507v11.746
		c0,0.986-0.342,1.822-1.026,2.506c-0.685,0.686-1.521,1.027-2.507,1.027h-3.533v15.278h-3.533V90.138z M94.788,105.417h3.533
		V93.671h-3.533V105.417z"/>
	<path fill="#FFFFFF" d="M113.504,93.671c0-0.986,0.342-1.821,1.026-2.507c0.684-0.684,1.52-1.026,2.507-1.026h7.066v3.533h-7.066
		v11.746h5.3v3.533h-5.3v15.278h-3.533V93.671z"/>
	<path fill="#FFFFFF" d="M126.825,95.151c0-0.732,0.143-1.416,0.43-2.054c0.287-0.636,0.668-1.193,1.146-1.671
		s1.034-0.859,1.671-1.146c0.637-0.287,1.321-0.43,2.053-0.43c0.732,0,1.416,0.143,2.053,0.43c0.636,0.286,1.193,0.668,1.671,1.146
		s0.859,1.035,1.146,1.671c0.287,0.638,0.43,1.321,0.43,2.054v24.063c0,0.733-0.143,1.417-0.43,2.054s-0.668,1.193-1.146,1.671
		s-1.035,0.859-1.671,1.146c-0.637,0.287-1.321,0.43-2.053,0.43c-0.732,0-1.417-0.143-2.053-0.43
		c-0.637-0.286-1.193-0.668-1.671-1.146s-0.859-1.034-1.146-1.671s-0.43-1.32-0.43-2.054V95.151z M133.891,93.671h-3.533v27.024
		h3.533V93.671z"/>
	<path fill="#FFFFFF" d="M141.912,90.138h7.066c0.986,0,1.822,0.343,2.507,1.026c0.684,0.686,1.026,1.521,1.026,2.507v10.791
		c0,0.828-0.151,1.425-0.453,1.79c-0.304,0.366-0.677,0.677-1.122,0.932c0.445,0.159,0.818,0.461,1.122,0.906
		c0.302,0.446,0.453,1.194,0.453,2.244v11.364c0,0.478,0.079,0.907,0.239,1.289c0.158,0.382,0.365,0.796,0.62,1.241h-3.629
		c-0.19-0.35-0.366-0.747-0.525-1.193c-0.159-0.445-0.238-0.891-0.238-1.337V108.95h-3.533v15.278h-3.533V90.138z M145.445,105.417
		h3.533V93.671h-3.533V105.417z"/>
	<path fill="#FFFFFF" d="M156.999,90.138h3.247l2.101,6.111c0.286,0.859,0.573,1.728,0.859,2.603
		c0.286,0.876,0.557,1.742,0.812,2.602h0.096c0.254-0.859,0.525-1.726,0.812-2.602c0.286-0.875,0.573-1.743,0.859-2.603l2.101-6.111
		h3.247v34.091h-3.533v-15.565c0-0.764,0.008-1.606,0.023-2.53c0.017-0.923,0.048-1.846,0.096-2.77
		c0.048-0.923,0.096-1.814,0.144-2.674s0.087-1.623,0.119-2.292h-0.096c-0.604,2.102-1.226,4.067-1.861,5.897
		c-0.638,1.83-1.273,3.685-1.91,5.562h-0.096c-0.637-1.877-1.273-3.731-1.91-5.562s-1.258-3.796-1.861-5.897h-0.096
		c0.063,0.669,0.111,1.433,0.144,2.292c0.031,0.859,0.071,1.751,0.119,2.674c0.048,0.924,0.079,1.847,0.096,2.77
		c0.016,0.924,0.023,1.767,0.023,2.53v15.565h-3.533V90.138z"/>
	<path fill="#FFFFFF" d="M175.62,90.138h3.533v30.558h3.533v-7.066h3.533v10.6h-10.6V90.138z"/>
	<path fill="#FFFFFF" d="M189.849,95.151c0-0.732,0.144-1.416,0.43-2.054c0.286-0.636,0.669-1.193,1.146-1.671
		c0.478-0.478,1.034-0.859,1.672-1.146c0.636-0.287,1.32-0.43,2.053-0.43c0.731,0,1.416,0.143,2.053,0.43
		c0.637,0.286,1.194,0.668,1.672,1.146s0.859,1.035,1.146,1.671c0.286,0.638,0.43,1.321,0.43,2.054v29.077h-3.533V108.95h-3.533
		v15.278h-3.533V95.151z M193.382,105.417h3.533V93.671h-3.533V105.417z"/>
	<path fill="#FFFFFF" d="M204.936,90.138h7.066c0.986,0,1.822,0.343,2.507,1.026c0.684,0.686,1.026,1.521,1.026,2.507v10.791
		c0,0.828-0.151,1.425-0.453,1.79c-0.304,0.366-0.677,0.677-1.122,0.932c0.445,0.159,0.818,0.461,1.122,0.906
		c0.302,0.446,0.453,1.194,0.453,2.244v11.364c0,0.478,0.079,0.907,0.239,1.289c0.158,0.382,0.365,0.796,0.62,1.241h-3.629
		c-0.19-0.35-0.366-0.747-0.525-1.193c-0.159-0.445-0.238-0.891-0.238-1.337V108.95h-3.533v15.278h-3.533V90.138z M208.469,105.417
		h3.533V93.671h-3.533V105.417z"/>
	<path fill="#FFFFFF" d="M220.023,90.138h3.533v34.091h-3.533V90.138z"/>
</g>
</svg>
