<?xml version="1.0" encoding="utf-8"?>
<!-- Generator: Adobe Illustrator 16.0.0, SVG Export Plug-In . SVG Version: 6.00 Build 0)  -->
<!DOCTYPE svg PUBLIC "-//W3C//DTD SVG 1.1//EN" "http://www.w3.org/Graphics/SVG/1.1/DTD/svg11.dtd">
<svg version="1.1" id="Layer_1" xmlns="http://www.w3.org/2000/svg" xmlns:xlink="http://www.w3.org/1999/xlink" x="0px" y="0px"
	 width="65px" height="65px" viewBox="0 0 65 65" enable-background="new 0 0 65 65" xml:space="preserve">
<g id="mail_1_">
	<linearGradient id="SVGID_1_" gradientUnits="userSpaceOnUse" x1="5.1284" y1="15.3301" x2="60.3542" y2="49.839">
		<stop  offset="0.5" style="stop-color:#E32B3F"/>
		<stop  offset="0.5" style="stop-color:#E84961"/>
	</linearGradient>
	<path fill="url(#SVGID_1_)" d="M61.482,18.066c0-1.143-0.81-2.542-1.796-3.112L34.537,0.435c-0.988-0.571-2.604-0.571-3.592,0
		L5.797,14.954C4.81,15.524,4,16.924,4,18.066v29.036c0,1.143,0.81,2.54,1.797,3.112l25.148,14.52c0.988,0.568,2.604,0.568,3.592,0
		l25.149-14.52c0.986-0.572,1.796-1.97,1.796-3.112V18.066z"/>
	<g>
		<linearGradient id="SVGID_2_" gradientUnits="userSpaceOnUse" x1="26.6543" y1="29.1387" x2="60.1671" y2="51.9996">
			<stop  offset="0.4" style="stop-color:#010202"/>
			<stop  offset="1" style="stop-color:#6F6F6F"/>
		</linearGradient>
		<path fill="url(#SVGID_2_)" d="M19.364,43.271L44.09,58.96l15.46-8.73c0.989-0.572,1.797-1.974,1.797-3.116V33.648l-14.985-9.422
			l-26.886,0.196l-1.317,18.077L19.364,43.271z"/>
		<path fill="#E42541" d="M19.364,43.271L44.09,58.96l15.46-8.73c0.989-0.572,1.797-1.974,1.797-3.116V33.648l-14.985-9.422
			l-26.886,0.196l-1.317,18.077L19.364,43.271z"/>
		<path opacity="0.6" fill="#010202" d="M47.238,25.347l-8.494,8.492l0.021,0.022l-0.841,0.84l-0.021-0.021l-3.281,3.281
			c-0.097,0.095-0.203,0.177-0.311,0.254c-0.519,0.266-1.198,0.191-1.625-0.233L20.051,25.347l0,0L31.827,37.12
			c0.524,0.523,1.436,0.523,1.956,0L45.56,25.347H47.238z M18.924,43.462l8.78-8.782l0.023,0.022l0.001-0.001l-0.862-0.862
			l-8.027,8.028v1.724l0.129-0.129H18.924z M20.646,43.462l-0.86,0.861h27.764l-0.861-0.861H20.646z M47.628,26.678v16.047
			l0.862,0.859V25.816L47.628,26.678z"/>
		<path fill="#FFFFFF" d="M26.867,33.839l-8.889-8.888v17.778L26.867,33.839z M33.782,37.12l12.64-12.635H19.189L31.827,37.12
			C32.351,37.644,33.263,37.644,33.782,37.12z M37.904,34.68l-3.281,3.281c-0.487,0.484-1.131,0.752-1.818,0.752
			c-0.686,0-1.333-0.268-1.816-0.752l-3.284-3.281l-8.78,8.782h27.765L37.904,34.68z M38.744,33.839l8.884,8.887V24.955
			L38.744,33.839z"/>
	</g>
</g>
</svg>
