<?xml version="1.0" encoding="iso-8859-1"?>
<!-- Generator: Adobe Illustrator 16.0.0, SVG Export Plug-In . SVG Version: 6.00 Build 0)  -->
<!DOCTYPE svg PUBLIC "-//W3C//DTD SVG 1.1//EN" "http://www.w3.org/Graphics/SVG/1.1/DTD/svg11.dtd">
<svg version="1.1" id="Layer_1" xmlns="http://www.w3.org/2000/svg" xmlns:xlink="http://www.w3.org/1999/xlink" x="0px" y="0px"
	 width="65px" height="65px" viewBox="0 0 65 65" style="enable-background:new 0 0 65 65;" xml:space="preserve">
<g id="mail_1_">
	<linearGradient id="SVGID_1_" gradientUnits="userSpaceOnUse" x1="5.0142" y1="15.3262" x2="59.9866" y2="49.6767">
		<stop  offset="0.5" style="stop-color:#E8374A"/>
		<stop  offset="0.5" style="stop-color:#EE5467"/>
	</linearGradient>
	<path style="fill:url(#SVGID_1_);" d="M61.086,18.018c0-1.14-0.805-2.535-1.786-3.105L34.287,0.428c-0.982-0.57-2.59-0.57-3.572,0
		L5.702,14.913c-0.982,0.57-1.787,1.965-1.787,3.105v28.967c0,1.14,0.805,2.535,1.787,3.104l25.013,14.484
		c0.982,0.567,2.59,0.567,3.572,0L59.3,50.09c0.981-0.569,1.786-1.965,1.786-3.104V18.018z"/>
	<g>
		<linearGradient id="SVGID_2_" gradientUnits="userSpaceOnUse" x1="26.4331" y1="29.0815" x2="59.7944" y2="51.8391">
			<stop  offset="0.4" style="stop-color:#000000"/>
			<stop  offset="1" style="stop-color:#66696A"/>
		</linearGradient>
		<path style="fill:url(#SVGID_2_);" d="M19.196,43.163l24.592,15.65l15.376-8.71c0.984-0.569,1.788-1.967,1.788-3.108V33.563
			l-14.904-9.399l-26.742,0.195l-1.31,18.034L19.196,43.163z"/>
		<linearGradient id="SVGID_3_" gradientUnits="userSpaceOnUse" x1="26.4331" y1="29.0815" x2="59.7944" y2="51.8391">
			<stop  offset="0.4" style="stop-color:#000000"/>
			<stop  offset="1" style="stop-color:#66696A"/>
		</linearGradient>
		<path style="opacity:0.2;fill:url(#SVGID_3_);" d="M19.196,43.163l24.592,15.65l15.376-8.71c0.984-0.569,1.788-1.967,1.788-3.108
			V33.563l-14.904-9.399l-26.742,0.195l-1.31,18.034L19.196,43.163z"/>
		<path style="opacity:0.6;" d="M46.92,25.281l-8.448,8.473l0.021,0.021l-0.836,0.838l-0.021-0.021l-3.265,3.274
			c-0.095,0.095-0.201,0.176-0.307,0.252c-0.517,0.267-1.192,0.191-1.616-0.231L19.879,25.281l0,0l11.712,11.747
			c0.522,0.521,1.428,0.521,1.946,0L45.25,25.281H46.92z M18.759,43.354l8.733-8.762l0.022,0.022l0.001-0.001l-0.857-0.859
			l-7.983,8.008v1.72l0.128-0.128H18.759z M20.472,43.354l-0.856,0.86h27.613l-0.856-0.86H20.472z M47.308,26.609v16.009
			l0.857,0.858V25.75L47.308,26.609z"/>
		<path style="fill:#FFFFFF;" d="M26.658,33.754l-8.841-8.867v17.736L26.658,33.754z M33.537,37.027l12.57-12.606H19.022
			l12.569,12.606C32.113,37.549,33.02,37.549,33.537,37.027z M37.636,34.592l-3.265,3.274c-0.483,0.482-1.123,0.749-1.807,0.749
			c-0.681,0-1.326-0.267-1.807-0.749l-3.266-3.274l-8.733,8.762h27.614L37.636,34.592z M38.472,33.754l8.836,8.864V24.89
			L38.472,33.754z"/>
	</g>
</g>
</svg>
