<?xml version="1.0" encoding="utf-8"?>
<!-- Generator: Adobe Illustrator 16.0.0, SVG Export Plug-In . SVG Version: 6.00 Build 0)  -->
<!DOCTYPE svg PUBLIC "-//W3C//DTD SVG 1.1//EN" "http://www.w3.org/Graphics/SVG/1.1/DTD/svg11.dtd">
<svg version="1.1" id="Layer_1" xmlns="http://www.w3.org/2000/svg" xmlns:xlink="http://www.w3.org/1999/xlink" x="0px" y="0px"
	 width="320px" height="480px" viewBox="0 0 320 480" enable-background="new 0 0 320 480" xml:space="preserve">
<g>
	<path fill="#E89C35" d="M161.851,0c-1.1,0-2.9,0-4,0H2C0.9,0,0,0.9,0,2v406.517c0,1.1,0,2.9,0,4v4.252c0,1.1,0.9,2,2,2h155.851
		c1.1,0,2.9,0,4,0H318c1.1,0,2-0.9,2-2v-4.252c0-1.1,0-2.9,0-4V2c0-1.1-0.9-2-2-2H161.851z"/>
</g>
<g>
	<path fill="none" stroke="#020101" stroke-miterlimit="10" d="M7.092,412.305c-1.1,0-2-0.9-2-2V7.266c0-1.1,0.9-2,2-2h305.816
		c1.1,0,2,0.9,2,2v403.039c0,1.1-0.9,2-2,2H7.092z"/>
</g>
<g>
	<path fill="#E89C35" d="M199.868,437.155c0.777,0.777,0.777,2.051,0,2.828l-38.604,38.603c-0.778,0.777-2.05,0.777-2.828,0
		l-38.604-38.603c-0.778-0.777-0.778-2.051,0-2.828l38.604-38.604c0.778-0.777,2.05-0.777,2.828,0L199.868,437.155z"/>
</g>
<g>
	<path fill="none" stroke="#020101" stroke-miterlimit="10" d="M195.33,437.155c0.777,0.777,0.777,2.051,0,2.828l-34.065,34.065
		c-0.778,0.777-2.05,0.777-2.828,0l-34.065-34.065c-0.778-0.777-0.778-2.051,0-2.828l34.065-34.064c0.778-0.777,2.05-0.777,2.828,0
		L195.33,437.155z"/>
</g>
<g>
	<g>
		<path fill="#020101" d="M167.702,433.988c0,0.358-0.296,0.654-0.653,0.654h-14.395c-0.358,0-0.655-0.296-0.655-0.654v-1.309
			c0-0.357,0.297-0.653,0.655-0.653h14.395c0.357,0,0.653,0.296,0.653,0.653V433.988z M167.702,439.223
			c0,0.358-0.296,0.654-0.653,0.654h-14.395c-0.358,0-0.655-0.296-0.655-0.654v-1.31c0-0.356,0.297-0.653,0.655-0.653h14.395
			c0.357,0,0.653,0.297,0.653,0.653V439.223z M167.702,444.457c0,0.358-0.296,0.654-0.653,0.654h-14.395
			c-0.358,0-0.655-0.296-0.655-0.654v-1.309c0-0.357,0.297-0.654,0.655-0.654h14.395c0.357,0,0.653,0.297,0.653,0.654V444.457z"/>
	</g>
</g>
</svg>
