<?xml version="1.0" encoding="iso-8859-1"?>
<!-- Generator: Adobe Illustrator 16.0.0, SVG Export Plug-In . SVG Version: 6.00 Build 0)  -->
<!DOCTYPE svg PUBLIC "-//W3C//DTD SVG 1.1//EN" "http://www.w3.org/Graphics/SVG/1.1/DTD/svg11.dtd">
<svg version="1.1" id="Layer_1" xmlns="http://www.w3.org/2000/svg" xmlns:xlink="http://www.w3.org/1999/xlink" x="0px" y="0px"
	 width="320px" height="480px" viewBox="0 0 320 480" style="enable-background:new 0 0 320 480;" xml:space="preserve">
<g>
	<path style="fill:#FFFFFF;" d="M161.851,0c-1.1,0-2.899,0-4,0H2C0.9,0,0,0.9,0,2v406.517c0,1.101,0,2.9,0,4v4.252
		c0,1.101,0.899,2,2,2h155.851c1.101,0,2.9,0,4,0H318c1.1,0,2-0.899,2-2v-4.252c0-1.1,0-2.899,0-4V2c0-1.101-0.9-2-2-2H161.851z"/>
</g>
<g>
	<path style="fill:none;stroke:#007CC1;stroke-miterlimit:10;" d="M7.092,412.305c-1.1,0-2-0.9-2-2V7.266c0-1.1,0.9-2,2-2h305.815
		c1.101,0,2,0.9,2,2v403.039c0,1.1-0.899,2-2,2H7.092z"/>
</g>
<g>
	<path style="fill:#EE3A23;" d="M199.868,437.155c0.776,0.777,0.776,2.051,0,2.828l-38.604,38.604c-0.778,0.776-2.05,0.776-2.828,0
		l-38.604-38.604c-0.778-0.777-0.778-2.051,0-2.828l38.604-38.604c0.778-0.777,2.05-0.777,2.828,0L199.868,437.155z"/>
</g>
<g>
	<path style="fill:none;stroke:#020101;stroke-miterlimit:10;" d="M195.33,437.155c0.776,0.777,0.776,2.051,0,2.828l-34.065,34.065
		c-0.778,0.776-2.05,0.776-2.828,0l-34.064-34.065c-0.778-0.777-0.778-2.051,0-2.828l34.064-34.063c0.778-0.777,2.05-0.777,2.828,0
		L195.33,437.155z"/>
</g>
<path style="fill-rule:evenodd;clip-rule:evenodd;" d="M171.418,424.507v16.989c0,1.937-1.584,3.521-3.52,3.521h-5.813v5.544h7.566
	l-9.802,8.764l-9.803-8.764h7.567v-5.544h-5.812c-1.937,0-3.521-1.584-3.521-3.521v-16.989h4.569v15.928h4.75v-15.928h4.499v15.928
	h4.75v-15.928H171.418L171.418,424.507z"/>
</svg>
