<?xml version="1.0" encoding="utf-8"?>
<!-- Generator: Adobe Illustrator 16.0.0, SVG Export Plug-In . SVG Version: 6.00 Build 0)  -->
<!DOCTYPE svg PUBLIC "-//W3C//DTD SVG 1.1//EN" "http://www.w3.org/Graphics/SVG/1.1/DTD/svg11.dtd">
<svg version="1.1" id="Layer_1" xmlns="http://www.w3.org/2000/svg" xmlns:xlink="http://www.w3.org/1999/xlink" x="0px" y="0px"
	 width="65px" height="65px" viewBox="0 0 65 65" enable-background="new 0 0 65 65" xml:space="preserve">
<g id="link">
	<linearGradient id="SVGID_1_" gradientUnits="userSpaceOnUse" x1="5.125" y1="15.2813" x2="60.1935" y2="49.6918">
		<stop  offset="0.5" style="stop-color:#EA5188"/>
		<stop  offset="0.5" style="stop-color:#ED6FA3"/>
	</linearGradient>
	<path fill="url(#SVGID_1_)" d="M61.319,18.009c0-1.139-0.807-2.534-1.792-3.104L34.449,0.428c-0.984-0.57-2.595-0.57-3.58,0
		L5.792,14.906C4.807,15.475,4,16.87,4,18.009v28.954c0,1.14,0.807,2.534,1.792,3.104l25.078,14.478c0.985,0.567,2.596,0.567,3.58,0
		l25.078-14.478c0.985-0.569,1.792-1.964,1.792-3.104V18.009z"/>
	<linearGradient id="SVGID_2_" gradientUnits="userSpaceOnUse" x1="26.043" y1="28.2588" x2="60.0469" y2="49.5068">
		<stop  offset="0.4" style="stop-color:#010202"/>
		<stop  offset="1" style="stop-color:#6F6F6F"/>
	</linearGradient>
	<path fill="url(#SVGID_2_)" d="M20.56,37.034l3.543,9.557L43.858,58.83l15.51-8.929c0.985-0.567,1.79-1.963,1.79-3.102V30.655
		L41.604,18.782l-6.822,5.673l-2.358,5.427l0.592,1.569l-1.611,1.933l-3.758-2.469L20.56,37.034z"/>
	<path fill="#EA5188" d="M20.56,37.034l3.543,9.557L43.858,58.83l15.51-8.929c0.985-0.567,1.79-1.963,1.79-3.102V30.655
		L41.604,18.782l-6.822,5.673l-2.358,5.427l0.592,1.569l-1.611,1.933l-3.758-2.469L20.56,37.034z"/>
	<path opacity="0.4" fill="#010202" d="M23.838,41.914l-0.859-0.859c-0.813-0.814-0.813-2.134,0-2.946l2.948-2.947
		c0.578-0.577,1.409-0.868,2.134-0.627l2.147-2.179c0.26,0.138,0.507,0.305,0.738,0.503l-2.539,2.453
		c-0.582-0.008-1.176,0.266-1.622,0.71l-2.947,2.946C23.024,39.779,23.024,41.1,23.838,41.914z M36.365,26.439l2.949-2.948
		c0.813-0.814,2.132-0.814,2.946,0l-0.858-0.859c-0.814-0.814-2.134-0.814-2.947,0l-2.949,2.948
		c-0.575,0.577-0.867,1.407-0.625,2.133l-2.178,2.147c0.146,0.276,0.324,0.538,0.536,0.782l2.435-2.351
		C35.576,27.64,35.861,26.943,36.365,26.439z M38.88,29.018c-0.146-0.149-0.319-0.26-0.503-0.337
		c0.245,0.564,0.165,1.233-0.291,1.688l-7.369,7.371c-0.473,0.473-1.366,0.575-2.029,0.315c0.076,0.197,0.192,0.385,0.351,0.543
		c0.611,0.61,1.926,0.61,2.537,0l0.193-0.192c-0.008-0.077-0.002-0.159-0.022-0.233l2.459-2.361
		c0.026,0.025,0.045,0.058,0.072,0.086l2.101-2.102c-0.044-0.039-0.093-0.067-0.135-0.109l2.275-2.288
		c0.073,0.02,0.155,0.013,0.233,0.022l0.191-0.192C39.556,30.618,39.491,29.628,38.88,29.018z M34.922,36.807
		c0.84,1.577,0.613,3.57-0.716,4.9l-4.595,4.594c-1.598,1.597-4.164,1.617-5.798,0.08l0.762,0.778c1.628,1.628,4.267,1.628,5.895,0
		l4.594-4.594c1.629-1.629,1.629-4.269,0-5.896L34.922,36.807z M47.594,24.228l-0.781-0.762c1.539,1.633,1.52,4.202-0.078,5.799
		l-4.594,4.422c-1.328,1.328-3.321,1.554-4.896,0.717l-0.141,0.143c1.628,1.627,4.269,1.627,5.896,0l4.595-4.422
		C49.221,28.496,49.221,25.855,47.594,24.228z"/>
	<path fill-rule="evenodd" clip-rule="evenodd" fill="#FFFFFF" d="M34.881,27.714c-0.242-0.726,0.05-1.556,0.625-2.133l2.949-2.948
		c0.813-0.814,2.133-0.814,2.947,0l2.211,2.21c0.813,0.815,0.813,2.134,0,2.948l-2.949,2.948c-0.547,0.547-1.446,0.849-2.145,0.66
		l-2.275,2.288c1.628,1.628,4.267,1.628,5.896,0l4.594-4.422c1.627-1.627,1.627-4.268,0-5.896l-3.857-3.771
		c-1.628-1.628-4.269-1.628-5.896,0l-4.422,4.508c-1.627,1.628-1.627,4.267,0,5.896L34.881,27.714z M28.061,34.534
		c-0.726-0.241-1.556,0.05-2.134,0.627l-2.948,2.947c-0.813,0.813-0.813,2.132,0,2.946l2.212,2.211c0.813,0.814,2.133,0.814,2.947,0
		l2.948-2.947c0.547-0.549,0.849-1.447,0.661-2.146l2.459-2.361c1.629,1.627,1.629,4.266,0,5.896l-4.595,4.594
		c-1.628,1.627-4.267,1.627-5.895,0l-3.685-3.771c-1.627-1.627-1.627-4.269,0-5.896l4.422-4.421c1.627-1.627,4.267-1.627,5.895,0
		L28.061,34.534z M38.021,28.159c0.611,0.611,0.676,1.6,0.064,2.21l-7.369,7.371c-0.611,0.609-1.926,0.609-2.537,0
		c-0.61-0.611-0.61-1.602,0-2.211l7.631-7.37C36.42,27.549,37.41,27.549,38.021,28.159z"/>
</g>
</svg>
