<?xml version="1.0" encoding="utf-8"?>
<!-- Generator: Adobe Illustrator 16.0.0, SVG Export Plug-In . SVG Version: 6.00 Build 0)  -->
<!DOCTYPE svg PUBLIC "-//W3C//DTD SVG 1.1//EN" "http://www.w3.org/Graphics/SVG/1.1/DTD/svg11.dtd">
<svg version="1.1" id="Layer_1" xmlns="http://www.w3.org/2000/svg" xmlns:xlink="http://www.w3.org/1999/xlink" x="0px" y="0px"
	 width="65px" height="65px" viewBox="0 0 65 65" enable-background="new 0 0 65 65" xml:space="preserve">
<g id="phone_1_">
	<linearGradient id="SVGID_1_" gradientUnits="userSpaceOnUse" x1="5.1191" y1="15.3857" x2="59.9168" y2="49.6271">
		<stop  offset="0.5" style="stop-color:#2DA8BD"/>
		<stop  offset="0.5" style="stop-color:#41B9CA"/>
	</linearGradient>
	<path fill="url(#SVGID_1_)" d="M61.037,18.101c0-1.134-0.804-2.522-1.783-3.089L34.299,0.605c-0.979-0.566-2.583-0.566-3.563,0
		L5.782,15.012C4.802,15.579,4,16.967,4,18.101v28.812c0,1.133,0.802,2.521,1.782,3.088l24.954,14.406
		c0.98,0.564,2.583,0.564,3.563,0l24.955-14.406c0.979-0.567,1.783-1.955,1.783-3.088V18.101z"/>
	<path fill="#28A8BC" d="M33.482,44.379l16.596,10.635l9.26-4.975c0.924-0.534,1.681-1.842,1.681-2.911v-4.836L26.735,20.101
		l-3.412,6.721L33.482,44.379z"/>
	<path opacity="0.4" fill="#010202" d="M48.639,41.458c0,0.483,0,1.253,0,1.818c0,0.49-0.167,1.148-0.618,1.769
		c-0.856,1.154-2.604,2.781-5.213,2.781c-4.105,0-8.726-1.98-13.821-6.813c-0.286-0.271-0.561-0.55-0.829-0.832
		c5.085,4.814,9.698,6.789,13.793,6.789c2.611,0,4.358-1.627,5.214-2.78c0.45-0.619,0.619-1.278,0.619-1.769
		c0-0.565,0-1.334,0-1.817c0-0.193-0.084-0.423-0.204-0.646c0.05,0.028,0.108,0.062,0.149,0.087
		C48.241,40.342,48.639,41.005,48.639,41.458z M29.256,25.419c0.189,0.516,0.339,1.21,0.339,1.995c0,0.724-1.391,2.208-1.87,2.664
		c-0.475,0.454-0.331,2.129,4.032,6.544c0.187,0.187,0.369,0.365,0.546,0.534c-4.05-4.171-4.188-5.781-3.724-6.224
		c0.479-0.456,1.87-1.941,1.87-2.664c0-0.786-0.15-1.48-0.339-1.996c-0.508-1.394-1.464-3.794-1.906-4.82
		c-0.128-0.298-0.411-0.627-0.83-0.795C27.827,21.711,28.756,24.047,29.256,25.419z"/>
	<path fill="#FFFFFF" d="M46.875,39.19c-0.749-0.444-3.001-1.678-4.095-2.275c-0.553-0.301-1.59-0.47-2.297,0.319h-0.002
		c-0.513,0.59-1.553,1.701-2.11,2.296l0,0c-0.004,0.003-0.005,0.006-0.005,0.009c-0.037,0.038-0.071,0.074-0.105,0.107
		c-0.191,0.201-0.432,0.406-0.93,0.406c-0.882-0.007-2.677-0.507-5.573-3.431c-4.363-4.416-4.507-6.091-4.032-6.544
		c0.479-0.457,1.87-1.94,1.87-2.664c0-0.785-0.15-1.479-0.339-1.995c-0.508-1.395-1.464-3.795-1.906-4.82
		c-0.176-0.414-0.641-0.895-1.369-0.908c-0.41,0-0.966,0-1.385,0c-0.452,0-0.996,0.198-1.425,0.571
		c-1.044,0.856-2.669,2.605-2.669,4.718c0,0.678,0,1.118,0,1.531c0,0.65,0.104,1.583,0.354,2.261
		c0.854,2.447,3.274,7.593,7.275,11.386c5.096,4.833,9.717,6.813,13.82,6.813c2.611,0,4.358-1.627,5.214-2.78
		c0.45-0.619,0.619-1.278,0.619-1.769c0-0.565,0-1.334,0-1.817C47.784,40.149,47.385,39.488,46.875,39.19z"/>
</g>
</svg>
