<?xml version="1.0" encoding="utf-8"?>
<!-- Generator: Adobe Illustrator 16.0.0, SVG Export Plug-In . SVG Version: 6.00 Build 0)  -->
<!DOCTYPE svg PUBLIC "-//W3C//DTD SVG 1.1//EN" "http://www.w3.org/Graphics/SVG/1.1/DTD/svg11.dtd">
<svg version="1.1" id="Layer_1" xmlns="http://www.w3.org/2000/svg" xmlns:xlink="http://www.w3.org/1999/xlink" x="0px" y="0px"
	 width="65px" height="65px" viewBox="0 0 65 65" enable-background="new 0 0 65 65" xml:space="preserve">
<g id="phone_1_">
	<linearGradient id="SVGID_1_" gradientUnits="userSpaceOnUse" x1="4.083" y1="15.3213" x2="59.2956" y2="49.8219">
		<stop  offset="0.5" style="stop-color:#2DA8BD"/>
		<stop  offset="0.5" style="stop-color:#41B9CA"/>
	</linearGradient>
	<path fill="url(#SVGID_1_)" d="M60.424,18.057c0-1.143-0.81-2.542-1.797-3.112L33.483,0.429c-0.987-0.571-2.603-0.571-3.59,0
		L4.75,14.945c-0.987,0.57-1.795,1.969-1.795,3.112v29.029c0,1.142,0.809,2.54,1.795,3.112l25.143,14.516
		c0.987,0.568,2.603,0.568,3.59,0l25.144-14.516c0.987-0.572,1.797-1.971,1.797-3.112V18.057z"/>
	<linearGradient id="SVGID_2_" gradientUnits="userSpaceOnUse" x1="21.4717" y1="26.5791" x2="58.278" y2="51.4053">
		<stop  offset="0.4" style="stop-color:#010202"/>
		<stop  offset="1" style="stop-color:#6F6F6F"/>
	</linearGradient>
	<path fill="url(#SVGID_2_)" d="M32.661,44.533l16.722,10.716l9.328-5.012c0.932-0.539,1.693-1.857,1.693-2.935v-4.871
		l-34.542-22.36l-3.438,6.772L32.661,44.533z"/>
	<path fill="#28A8BC" d="M32.661,44.533l16.722,10.716l9.328-5.012c0.932-0.539,1.693-1.857,1.693-2.935v-4.871l-34.542-22.36
		l-3.438,6.772L32.661,44.533z"/>
	<path opacity="0.4" fill="#010202" d="M47.932,41.591c0,0.486,0,1.263,0,1.832c0,0.495-0.169,1.156-0.624,1.782
		c-0.861,1.162-2.624,2.802-5.252,2.802c-4.136,0-8.791-1.995-13.925-6.864c-0.288-0.272-0.565-0.554-0.835-0.838
		c5.124,4.85,9.771,6.84,13.898,6.84c2.631,0,4.391-1.639,5.254-2.802c0.453-0.624,0.623-1.287,0.623-1.782c0-0.568,0-1.343,0-1.83
		c0-0.195-0.084-0.426-0.206-0.65c0.05,0.027,0.11,0.062,0.15,0.087C47.53,40.466,47.932,41.133,47.932,41.591z M28.402,25.43
		c0.19,0.52,0.342,1.22,0.342,2.01c0,0.729-1.401,2.224-1.883,2.684c-0.479,0.458-0.333,2.146,4.063,6.593
		c0.188,0.189,0.372,0.369,0.551,0.539c-4.081-4.202-4.22-5.824-3.752-6.27c0.482-0.46,1.884-1.957,1.884-2.685
		c0-0.792-0.152-1.491-0.342-2.011c-0.512-1.405-1.475-3.823-1.92-4.856c-0.129-0.3-0.413-0.631-0.835-0.801
		C26.962,21.694,27.899,24.048,28.402,25.43z"/>
	<path fill="#FFFFFF" d="M46.155,39.305c-0.756-0.447-3.024-1.689-4.127-2.29c-0.557-0.304-1.603-0.474-2.314,0.319h-0.002
		c-0.517,0.596-1.564,1.715-2.126,2.313l0,0c-0.003,0.003-0.004,0.007-0.004,0.01c-0.038,0.039-0.073,0.075-0.107,0.108
		c-0.192,0.203-0.434,0.409-0.936,0.409c-0.89-0.007-2.698-0.511-5.616-3.458c-4.396-4.447-4.542-6.135-4.063-6.593
		c0.482-0.46,1.883-1.956,1.883-2.684c0-0.79-0.151-1.49-0.342-2.01c-0.512-1.405-1.475-3.824-1.92-4.857
		c-0.178-0.416-0.646-0.902-1.38-0.915c-0.412,0-0.972,0-1.394,0c-0.456,0-1.003,0.201-1.436,0.575
		c-1.052,0.862-2.69,2.625-2.69,4.754c0,0.684,0,1.126,0,1.543c0,0.655,0.104,1.594,0.356,2.278c0.86,2.465,3.299,7.65,7.33,11.473
		c5.134,4.869,9.791,6.863,13.924,6.863c2.631,0,4.391-1.639,5.254-2.802c0.453-0.624,0.623-1.287,0.623-1.782
		c0-0.568,0-1.343,0-1.83C47.07,40.272,46.669,39.605,46.155,39.305z"/>
</g>
</svg>
