<?xml version="1.0" encoding="utf-8"?>
<!-- Generator: Adobe Illustrator 16.0.0, SVG Export Plug-In . SVG Version: 6.00 Build 0)  -->
<!DOCTYPE svg PUBLIC "-//W3C//DTD SVG 1.1//EN" "http://www.w3.org/Graphics/SVG/1.1/DTD/svg11.dtd">
<svg version="1.1" id="Layer_1" xmlns="http://www.w3.org/2000/svg" xmlns:xlink="http://www.w3.org/1999/xlink" x="0px" y="0px"
	 width="65px" height="65px" viewBox="0 0 65 65" enable-background="new 0 0 65 65" xml:space="preserve">
<g id="bird_1_">
	<linearGradient id="SVGID_1_" gradientUnits="userSpaceOnUse" x1="5.1206" y1="15.3428" x2="59.91" y2="49.579">
		<stop  offset="0.5" style="stop-color:#3ABCDB"/>
		<stop  offset="0.5" style="stop-color:#55C1DB"/>
	</linearGradient>
	<path fill="url(#SVGID_1_)" d="M61.029,18.058c0-1.134-0.803-2.522-1.781-3.088L34.296,0.565c-0.979-0.566-2.583-0.566-3.563,0
		L5.783,14.97C4.804,15.536,4,16.924,4,18.058v28.807c0,1.134,0.804,2.52,1.783,3.087l24.95,14.406c0.981,0.564,2.584,0.564,3.563,0
		l24.952-14.406c0.979-0.567,1.781-1.953,1.781-3.087V18.058z"/>
	<path fill="#36BCDB" d="M24.691,43.836l-10.148-6.302l0.641,2.671l4.273,4.271l24.355,14.21l15.325-8.776
		c0.98-0.566,1.781-1.954,1.781-3.088V33.323l-11.204-6.88l-0.807,0.359l-8.62-5.292l-5.448,1.281L24.691,43.836z"/>
	<path opacity="0.4" fill-rule="evenodd" clip-rule="evenodd" fill="#010202" d="M43.799,23.946c1.137,0.948,2.01,2.34,2.104,4.315
		c-0.617,0.129-0.833-0.511-0.833-0.511C45.07,26.134,44.56,24.891,43.799,23.946z M46.847,30.01c0,0-0.888,1.119,0.387,0.889
		c0,0,0.343-0.072,0.751-0.19c1.362-0.847,2.612-3.011,2.612-3.011c0.076-0.811-0.464-0.464-0.464-0.464
		c-0.17,0.02-0.514,0.183-0.891,0.383C48.699,28.405,47.781,29.568,46.847,30.01z M38.948,26.204c-1.106,0-2.003,0.896-2.003,2.003
		c0,0.774,0.443,1.438,1.086,1.772c-0.144-0.277-0.232-0.586-0.232-0.917c0-1.106,0.896-2.003,2.003-2.003
		c0.332,0,0.642,0.087,0.917,0.23C40.385,26.646,39.722,26.204,38.948,26.204z M16.886,41.301c-1.252-1.478-1.722-3.125-1.722-3.125
		c0,0.452,0.062,0.891,0.166,1.321C15.716,40.106,16.229,40.747,16.886,41.301z M49.904,31.149
		c-0.314,0.188-0.818,0.349-1.219,0.457c-0.979,0.591-2.273,1.323-2.688,1.323c0,0-0.464,0.116-0.464,0.54
		c0,0-0.425,13.643-18.103,13.503c-2.973-0.023-7.422-1.669-10.297-4.266c2.775,3.086,7.864,5.095,11.152,5.122
		C45.964,47.966,46.39,34.325,46.39,34.325c0-0.425,0.465-0.541,0.465-0.541c0.692,0,3.861-2.056,3.861-2.056
		C51.411,30.416,49.904,31.149,49.904,31.149z M28.312,44.168c2.337-0.883,3.281-2.865,3.979-6.795
		c0.602-3.396,3.526-3.729,5.339-2.435c-1.531-2.171-5.482-2.433-6.194,1.581c-0.901,5.076-2.203,6.91-6.41,7.312
		C25.791,44.065,26.958,44.225,28.312,44.168z"/>
	<path fill-rule="evenodd" clip-rule="evenodd" fill="#FFFFFF" d="M49.051,30.295c-0.579,0.347-1.817,0.604-1.817,0.604
		c-1.274,0.23-0.387-0.889-0.387-0.889c1.467-0.694,2.896-3.166,2.896-3.166c0.076-0.811-0.465-0.465-0.465-0.465
		c-0.502,0.061-2.488,1.324-2.488,1.324c-1.313,1.274-1.719,0.046-1.719,0.046c0-5.173-5.245-6.539-7.101-6.45
		c-14.613,0.699-4.951,20.781-16.746,21.434c-5.313,0.295-6.915-5.412-6.915-5.412c0,5.507,8.414,9.614,13.123,9.65
		c17.678,0.14,18.103-13.503,18.103-13.503c0-0.424,0.464-0.54,0.464-0.54c0.693,0,3.863-2.057,3.863-2.057
		C50.557,29.562,49.051,30.295,49.051,30.295z M37.045,39.825c-3.807,4.808-9.715,4.707-12.02,4.006
		c4.208-0.401,5.509-2.235,6.41-7.312C32.537,30.31,41.398,34.326,37.045,39.825z M38.948,30.21c-1.106,0-2.003-0.898-2.003-2.003
		c0-1.107,0.896-2.003,2.003-2.003s2.001,0.896,2.001,2.003C40.949,29.313,40.055,30.21,38.948,30.21z"/>
</g>
</svg>
