<?xml version="1.0" encoding="utf-8"?>
<!-- Generator: Adobe Illustrator 16.0.0, SVG Export Plug-In . SVG Version: 6.00 Build 0)  -->
<!DOCTYPE svg PUBLIC "-//W3C//DTD SVG 1.1//EN" "http://www.w3.org/Graphics/SVG/1.1/DTD/svg11.dtd">
<svg version="1.1" id="Layer_1" xmlns="http://www.w3.org/2000/svg" xmlns:xlink="http://www.w3.org/1999/xlink" x="0px" y="0px"
	 width="65px" height="65px" viewBox="0 0 65 65" enable-background="new 0 0 65 65" xml:space="preserve">
<g id="bird_1_">
	<linearGradient id="SVGID_1_" gradientUnits="userSpaceOnUse" x1="5.1265" y1="15.2568" x2="60.2587" y2="49.7073">
		<stop  offset="0.5" style="stop-color:#3ABCDB"/>
		<stop  offset="0.5" style="stop-color:#55C1DB"/>
	</linearGradient>
	<path fill="url(#SVGID_1_)" d="M61.385,17.989c0-1.14-0.807-2.537-1.793-3.106L34.484,0.388c-0.985-0.571-2.599-0.571-3.585,0
		L5.794,14.882C4.809,15.452,4,16.849,4,17.989v28.987c0,1.141,0.809,2.536,1.794,3.106l25.105,14.496
		c0.987,0.567,2.6,0.567,3.585,0l25.107-14.496c0.986-0.57,1.793-1.966,1.793-3.106V17.989z"/>
	<path fill="#29235C" d="M24.821,43.929l-10.212-6.344l0.645,2.688l4.301,4.3l24.506,14.296l15.421-8.831
		c0.986-0.57,1.792-1.966,1.792-3.106V33.349l-11.274-6.922l-0.811,0.362l-8.675-5.327l-5.482,1.29L24.821,43.929z"/>
	<path opacity="0.4" fill-rule="evenodd" clip-rule="evenodd" fill="#010202" d="M44.047,23.914
		c1.145,0.954,2.022,2.354,2.117,4.342c-0.62,0.13-0.837-0.514-0.837-0.514C45.327,26.115,44.813,24.864,44.047,23.914z
		 M47.113,30.016c0,0-0.892,1.126,0.39,0.894c0,0,0.345-0.072,0.755-0.191c1.371-0.853,2.628-3.029,2.628-3.029
		c0.078-0.816-0.466-0.467-0.466-0.467c-0.171,0.02-0.516,0.184-0.896,0.385C48.978,28.4,48.054,29.57,47.113,30.016z
		 M39.166,26.186c-1.114,0-2.016,0.902-2.016,2.016c0,0.779,0.447,1.447,1.093,1.783c-0.145-0.278-0.233-0.589-0.233-0.922
		c0-1.113,0.901-2.016,2.016-2.016c0.334,0,0.646,0.088,0.922,0.232C40.611,26.631,39.945,26.186,39.166,26.186z M16.966,41.378
		c-1.261-1.488-1.733-3.146-1.733-3.146c0,0.453,0.062,0.896,0.167,1.329C15.79,40.176,16.305,40.817,16.966,41.378z M50.191,31.162
		c-0.317,0.19-0.824,0.352-1.227,0.46c-0.985,0.595-2.289,1.332-2.704,1.332c0,0-0.467,0.117-0.467,0.543
		c0,0-0.429,13.727-18.216,13.587c-2.991-0.024-7.468-1.681-10.362-4.292c2.792,3.104,7.914,5.126,11.222,5.152
		c17.788,0.139,18.216-13.587,18.216-13.587c0-0.428,0.467-0.544,0.467-0.544c0.697,0,3.886-2.069,3.886-2.069
		C51.706,30.424,50.191,31.162,50.191,31.162z M28.463,44.262c2.353-0.889,3.302-2.883,4.004-6.836
		c0.606-3.419,3.549-3.753,5.373-2.451c-1.54-2.185-5.517-2.448-6.233,1.593c-0.906,5.106-2.217,6.951-6.45,7.354
		C25.926,44.157,27.102,44.318,28.463,44.262z"/>
	<path fill-rule="evenodd" clip-rule="evenodd" fill="#FFFFFF" d="M49.332,30.303c-0.582,0.35-1.829,0.607-1.829,0.607
		c-1.281,0.232-0.39-0.894-0.39-0.894c1.477-0.699,2.914-3.186,2.914-3.186c0.076-0.816-0.468-0.468-0.468-0.468
		c-0.505,0.062-2.504,1.333-2.504,1.333c-1.32,1.282-1.729,0.046-1.729,0.046c0-5.205-5.278-6.579-7.146-6.49
		c-14.704,0.703-4.982,20.912-16.851,21.569c-5.345,0.296-6.958-5.447-6.958-5.447c0,5.543,8.466,9.674,13.205,9.711
		c17.788,0.14,18.216-13.587,18.216-13.587c0-0.427,0.467-0.543,0.467-0.543c0.697,0,3.887-2.07,3.887-2.07
		C50.847,29.565,49.332,30.303,49.332,30.303z M37.251,39.892c-3.83,4.838-9.776,4.737-12.095,4.03
		c4.233-0.403,5.544-2.248,6.45-7.354C32.715,30.318,41.631,34.358,37.251,39.892z M39.166,30.217c-1.114,0-2.016-0.903-2.016-2.016
		c0-1.113,0.901-2.016,2.016-2.016c1.113,0,2.015,0.902,2.015,2.016C41.181,29.314,40.279,30.217,39.166,30.217z"/>
</g>
</svg>
