<?xml version="1.0" encoding="iso-8859-1"?>
<!-- Generator: Adobe Illustrator 16.0.0, SVG Export Plug-In . SVG Version: 6.00 Build 0)  -->
<!DOCTYPE svg PUBLIC "-//W3C//DTD SVG 1.1//EN" "http://www.w3.org/Graphics/SVG/1.1/DTD/svg11.dtd">
<svg version="1.1" id="Layer_1" xmlns="http://www.w3.org/2000/svg" xmlns:xlink="http://www.w3.org/1999/xlink" x="0px" y="0px"
	 width="65px" height="65px" viewBox="0 0 65 65" style="enable-background:new 0 0 65 65;" xml:space="preserve">
<g id="bird_1_">
	<linearGradient id="SVGID_1_" gradientUnits="userSpaceOnUse" x1="5.312" y1="15.3252" x2="60.2836" y2="49.6752">
		<stop  offset="0.5" style="stop-color:#27C1DB"/>
		<stop  offset="0.5" style="stop-color:#45C4DB"/>
	</linearGradient>
	<path style="fill:url(#SVGID_1_);" d="M61.384,18.018c0-1.14-0.804-2.536-1.786-3.105L34.584,0.428
		c-0.982-0.571-2.589-0.571-3.572,0L6,14.913c-0.982,0.569-1.787,1.965-1.787,3.105v28.967c0,1.14,0.805,2.535,1.787,3.104
		l25.012,14.486c0.983,0.566,2.59,0.566,3.572,0l25.014-14.486c0.982-0.569,1.786-1.965,1.786-3.104V18.018z"/>
	<linearGradient id="SVGID_2_" gradientUnits="userSpaceOnUse" x1="21.3838" y1="27.0356" x2="59.4366" y2="50.8137">
		<stop  offset="0.4" style="stop-color:#000000"/>
		<stop  offset="1" style="stop-color:#66696A"/>
	</linearGradient>
	<path style="fill:url(#SVGID_2_);" d="M24.956,43.939l-10.173-6.339l0.642,2.687l4.284,4.296L44.124,58.87l15.364-8.825
		c0.982-0.569,1.785-1.965,1.785-3.104V33.367L50.042,26.45l-0.81,0.361l-8.641-5.323l-5.463,1.289L24.956,43.939z"/>
	<linearGradient id="SVGID_3_" gradientUnits="userSpaceOnUse" x1="21.3838" y1="27.0356" x2="59.4366" y2="50.8137">
		<stop  offset="0.4" style="stop-color:#000000"/>
		<stop  offset="1" style="stop-color:#66696A"/>
	</linearGradient>
	<path style="opacity:0.3;fill:url(#SVGID_3_);" d="M24.956,43.939l-10.173-6.339l0.642,2.687l4.284,4.296L44.124,58.87
		l15.364-8.825c0.982-0.569,1.785-1.965,1.785-3.104V33.367L50.042,26.45l-0.81,0.361l-8.641-5.323l-5.463,1.289L24.956,43.939z"/>
	<path style="opacity:0.4;fill-rule:evenodd;clip-rule:evenodd;" d="M44.11,23.938c1.141,0.954,2.016,2.354,2.11,4.339
		c-0.619,0.13-0.835-0.514-0.835-0.514C45.386,26.139,44.873,24.888,44.11,23.938z M47.166,30.036c0,0-0.89,1.125,0.388,0.894
		c0,0,0.344-0.072,0.752-0.191c1.366-0.852,2.619-3.027,2.619-3.027c0.077-0.816-0.464-0.467-0.464-0.467
		c-0.171,0.021-0.515,0.184-0.894,0.385C49.023,28.422,48.104,29.591,47.166,30.036z M39.248,26.209
		c-1.109,0-2.009,0.901-2.009,2.014c0,0.778,0.445,1.446,1.09,1.781c-0.145-0.278-0.233-0.588-0.233-0.922
		c0-1.112,0.898-2.014,2.008-2.014c0.334,0,0.644,0.088,0.919,0.232C40.688,26.654,40.023,26.209,39.248,26.209z M17.131,41.391
		c-1.256-1.488-1.727-3.144-1.727-3.144c0,0.454,0.062,0.896,0.167,1.328C15.958,40.188,16.472,40.831,17.131,41.391z
		 M50.231,31.182c-0.314,0.19-0.82,0.352-1.222,0.46c-0.98,0.594-2.279,1.331-2.693,1.331c0,0-0.466,0.116-0.466,0.543
		c0,0-0.427,13.717-18.148,13.577c-2.98-0.023-7.44-1.68-10.323-4.289c2.782,3.103,7.884,5.123,11.18,5.149
		c17.722,0.138,18.148-13.578,18.148-13.578c0-0.427,0.465-0.543,0.465-0.543c0.695,0,3.872-2.068,3.872-2.068
		C51.741,30.444,50.231,31.182,50.231,31.182z M28.584,44.272c2.344-0.888,3.29-2.881,3.989-6.831
		c0.604-3.418,3.536-3.751,5.354-2.449c-1.535-2.184-5.496-2.447-6.21,1.591c-0.903,5.104-2.209,6.947-6.426,7.351
		C26.057,44.168,27.229,44.33,28.584,44.272z"/>
	<path style="fill-rule:evenodd;clip-rule:evenodd;fill:#FFFFFF;" d="M49.376,30.323c-0.58,0.349-1.822,0.606-1.822,0.606
		c-1.277,0.231-0.388-0.894-0.388-0.894c1.471-0.698,2.902-3.184,2.902-3.184c0.077-0.815-0.465-0.467-0.465-0.467
		c-0.504,0.061-2.496,1.332-2.496,1.332c-1.314,1.281-1.722,0.046-1.722,0.046c0-5.201-5.259-6.575-7.119-6.485
		c-14.649,0.703-4.963,20.897-16.788,21.554c-5.326,0.296-6.932-5.444-6.932-5.444c0,5.539,8.434,9.668,13.155,9.705
		c17.721,0.14,18.148-13.577,18.148-13.577c0-0.427,0.466-0.543,0.466-0.543c0.694,0,3.871-2.069,3.871-2.069
		C50.885,29.585,49.376,30.323,49.376,30.323z M37.34,39.905c-3.815,4.835-9.74,4.734-12.049,4.028
		c4.217-0.403,5.523-2.247,6.426-7.351C32.821,30.338,41.704,34.376,37.34,39.905z M39.248,30.237c-1.109,0-2.009-0.903-2.009-2.014
		c0-1.113,0.899-2.014,2.009-2.014s2.007,0.901,2.007,2.014C41.255,29.334,40.357,30.237,39.248,30.237z"/>
</g>
</svg>
